<svg xmlns="http://www.w3.org/2000/svg" xmlns:xlink="http://www.w3.org/1999/xlink" width="1920" zoomAndPan="magnify" viewBox="0 0 1440 809.999993" height="1080" preserveAspectRatio="xMidYMid meet" version="1.0"><defs><clipPath id="b4eeb32804"><path d="M 700 0 L 1136.863281 0 L 1136.863281 617 L 700 617 Z M 700 0 " clip-rule="nonzero"/></clipPath></defs><path fill="#e4d9d3" d="M 733.652344 806.222656 C 752.957031 742.917969 758 672.132812 731.21875 610.21875 C 727.390625 601.351562 721.824219 593.175781 717.128906 584.652344 C 708.957031 569.871094 701.652344 554.046875 695.21875 538.394531 C 686.171875 516.132812 679.914062 492.828125 673.128906 469.871094 C 661.476562 430.914062 641.652344 393.523438 614.347656 363.433594 C 604.78125 352.652344 594 342.914062 582.519531 334.5625 C 574.347656 328.476562 565.476562 323.433594 556.257812 318.214844 C 546 312.476562 535.5625 307.78125 524.085938 304.824219 C 501.476562 298.738281 477.824219 296.128906 454.519531 293.867188 C 435.910156 292.128906 417.300781 291.085938 398.691406 288.824219 C 379.5625 286.5625 360.429688 283.085938 341.648438 279.085938 C 332.257812 277 323.039062 274.738281 313.820312 272.304688 C 314.515625 273 315.214844 273.695312 315.910156 274.390625 C 313.125 262.5625 319.386719 251.78125 327.039062 243.085938 C 335.386719 233.695312 345.472656 226.214844 354.867188 217.867188 C 374.519531 200.300781 391.5625 177.519531 417.824219 170.042969 C 441.476562 163.257812 467.039062 169.34375 487.738281 181.519531 C 511.042969 194.910156 527.910156 215.953125 539.910156 239.78125 C 554.347656 268.476562 561.824219 299.957031 569.128906 330.914062 C 569.652344 329.695312 570 328.824219 570.519531 327.78125 C 547.214844 344.128906 522.867188 358.390625 497.128906 370.390625 C 484.78125 376.128906 471.910156 382.738281 457.996094 383.433594 C 445.648438 384.128906 435.214844 378.21875 430.171875 366.738281 C 420.78125 346.214844 428.953125 321 443.214844 304.824219 C 457.996094 287.957031 480.085938 278.214844 502.519531 281.347656 C 527.390625 284.824219 550.171875 302.042969 558.519531 326.042969 C 559.042969 327.433594 560.605469 328.476562 562 328.128906 C 591.910156 316.128906 601.476562 281.347656 607.5625 253 C 615.390625 217.171875 621.304688 175.953125 595.738281 145.691406 C 585.652344 133.691406 571.390625 125.867188 555.5625 125.34375 C 540.257812 124.824219 524.953125 131.085938 513.476562 140.824219 C 486.34375 163.78125 484.78125 204.128906 498.691406 234.738281 C 507.738281 254.5625 517.996094 274.214844 529.996094 292.652344 C 538.867188 306.5625 549.128906 319.957031 561.476562 330.738281 C 564.257812 333.171875 568.257812 329.171875 565.652344 326.5625 C 555.390625 317.695312 547.042969 307.261719 539.390625 295.957031 C 529.648438 281.867188 521.128906 266.738281 513.128906 251.257812 C 505.128906 235.257812 497.128906 219.605469 495.738281 201.519531 C 494.519531 185.34375 497.996094 168.648438 507.390625 155.257812 C 524.433594 131.085938 560.257812 122.039062 583.910156 141.867188 C 611.910156 165.171875 610.867188 204.824219 604.605469 237.347656 C 601.476562 254.738281 597.824219 272.476562 590.695312 288.824219 C 584.605469 303.261719 575.042969 316.652344 560.085938 322.5625 C 561.300781 323.261719 562.347656 323.957031 563.5625 324.652344 C 555.214844 301.695312 535.390625 284.304688 511.910156 277.867188 C 488.257812 271.433594 463.5625 278.042969 445.300781 294.214844 C 427.5625 309.867188 416.605469 335.085938 421.128906 358.738281 C 423.386719 370.390625 429.996094 381.523438 441.128906 386.390625 C 453.824219 392.128906 468.78125 388.128906 480.953125 383.433594 C 513.300781 370.738281 544.085938 352.652344 572.605469 332.824219 C 573.824219 332.128906 574.171875 331.085938 574 329.695312 C 560.953125 274.738281 545.476562 212.476562 495.214844 179.953125 C 473.824219 165.867188 447.5625 158.039062 422.519531 162.5625 C 393.824219 167.78125 374.867188 189.867188 354.867188 208.996094 C 336.777344 226.390625 302.863281 245.867188 309.472656 275.433594 C 309.648438 276.304688 310.691406 277.171875 311.5625 277.519531 C 348.257812 287.257812 386.171875 293.695312 423.910156 296.824219 C 452.085938 299.085938 480.433594 301 508.257812 306.5625 C 521.300781 309.347656 533.996094 313 546.171875 319.085938 C 563.738281 328.128906 580.085938 338.738281 594.695312 352.128906 C 625.652344 380.304688 648.957031 418.21875 662.695312 457.871094 C 669.824219 478.21875 674.519531 499.261719 681.652344 519.609375 C 691.390625 547.4375 703.738281 574.21875 718.871094 599.609375 C 725.304688 610.566406 729.824219 622.21875 733.476562 634.21875 C 738.695312 651.960938 741.824219 670.21875 743.042969 688.480469 C 745.128906 720.828125 740.957031 753.175781 732.957031 784.65625 C 731.390625 791.265625 729.476562 797.875 727.566406 804.308594 C 727.042969 808.308594 732.433594 809.875 733.652344 806.222656 Z M 733.652344 806.222656 " fill-opacity="1" fill-rule="nonzero"/><g clip-path="url(#b4eeb32804)"><path fill="#e4d9d3" d="M 730.175781 616.65625 C 765.304688 606.566406 799.390625 593.175781 831.566406 575.609375 C 855.742188 562.394531 878.523438 546.914062 899.566406 528.828125 C 920.957031 510.390625 939.21875 489.175781 957.65625 467.785156 C 981.308594 440.128906 1006.871094 414.738281 1035.742188 392.824219 C 1063.917969 371.433594 1094.527344 353.171875 1126.527344 337.867188 C 1129.480469 336.476562 1132.4375 335.085938 1135.394531 333.695312 C 1137.132812 332.824219 1137.132812 329.519531 1135.394531 328.652344 C 1103.222656 314.738281 1068.785156 305.171875 1033.828125 303.78125 C 1011.742188 302.910156 989.65625 305.347656 968.609375 311.609375 C 938.351562 320.304688 910.351562 335.78125 885.480469 354.390625 C 859.21875 374.21875 836.261719 397.695312 815.914062 423.261719 C 796.609375 448.128906 779.738281 474.738281 766.175781 503.261719 C 760.085938 516.304688 754.695312 529.523438 750.175781 542.914062 C 746 555.4375 742.695312 568.132812 737.652344 580.480469 C 735.566406 585.351562 733.304688 590.914062 729.652344 594.914062 C 727.390625 597.175781 726.523438 597.003906 724.609375 594.394531 C 721.824219 590.914062 720.78125 586.394531 719.566406 582.394531 C 718 577 716.78125 571.261719 715.914062 565.347656 C 711.390625 538.21875 710.171875 510.390625 712.78125 482.914062 C 715.21875 455.609375 721.824219 429.175781 730.347656 403.085938 C 741.828125 368.304688 756.609375 334.738281 774.347656 302.738281 C 790 274.214844 807.914062 247.085938 826.347656 220.648438 C 844.957031 194.042969 863.566406 166.910156 886 143.433594 C 898.347656 130.738281 912.261719 119.953125 928.609375 112.648438 C 952.261719 102.214844 980.089844 100.648438 1004.089844 111.953125 C 1016.089844 117.691406 1026.351562 126.734375 1032.265625 138.5625 C 1035.917969 145.867188 1038.003906 154.214844 1036.4375 162.214844 C 1034.871094 170.910156 1028.4375 176.648438 1020.785156 179.953125 C 1011.742188 183.78125 1001.828125 186.390625 992.261719 189.34375 C 981.828125 192.476562 971.566406 195.78125 960.957031 199.085938 C 939.742188 205.695312 918.523438 212.300781 897.304688 218.910156 C 876.261719 225.519531 855.394531 231.953125 834.347656 238.5625 C 829.828125 239.953125 824.957031 241.695312 820.261719 242.910156 C 816.785156 243.78125 812.785156 244.476562 809.132812 243.085938 C 804.785156 241.519531 804.085938 236.652344 803.390625 232.824219 C 802.695312 229 801.828125 225.519531 800.261719 221.867188 C 793.828125 207.78125 779.566406 198.390625 765.828125 191.953125 C 751.042969 185.171875 735.042969 180.476562 721.824219 170.910156 C 715.390625 166.390625 709.304688 160.128906 706.523438 152.824219 C 705.304688 149.691406 704.78125 145.691406 705.652344 142.386719 C 706.871094 138.039062 710.171875 136.476562 714.523438 135.605469 C 724.957031 133.519531 735.21875 131.953125 745.828125 129.867188 C 756.261719 128.128906 767.042969 125.691406 777.652344 124.476562 C 786.695312 123.257812 796.609375 123.257812 804.957031 127.605469 C 811.390625 131.085938 816.4375 136.476562 819.914062 142.5625 C 827.738281 156.476562 828.089844 172.824219 823.390625 187.953125 C 818 205.695312 806.523438 221 795.738281 235.605469 C 794 238.042969 798.175781 241.519531 800.261719 239.085938 C 814.175781 221.347656 805.304688 198.214844 794.871094 180.996094 C 788.261719 170.214844 780.433594 160.300781 773.304688 150.039062 C 765.304688 138.910156 757.304688 127.433594 749.128906 116.300781 C 735.738281 97.691406 719.042969 77.171875 716.957031 53.171875 C 716.085938 43.429688 717.652344 33.34375 722.347656 24.648438 C 727.566406 15.257812 736.433594 9.691406 747.042969 7.257812 C 758 4.996094 769.652344 6.5625 780.609375 8.648438 C 793.304688 11.082031 806.347656 13.867188 819.042969 16.472656 C 832.4375 19.257812 846 21.867188 859.394531 24.648438 C 871.046875 26.910156 884.089844 28.300781 894.699219 33.691406 C 903.566406 38.214844 909.304688 46.386719 910.351562 56.476562 C 911.566406 66.214844 908.957031 76.300781 905.480469 85.34375 C 900.4375 99.257812 893.132812 112.476562 886.347656 125.691406 C 868.261719 161.171875 845.480469 193.867188 817.480469 222.042969 C 812.957031 226.910156 807.914062 231.433594 803.042969 235.78125 C 800.261719 238.214844 804.4375 242.390625 807.21875 239.953125 C 839.566406 210.390625 866.695312 175.433594 887.21875 136.648438 C 893.828125 124.128906 900.4375 111.433594 906.175781 98.386719 C 914.003906 81.34375 921.828125 58.214844 910.699219 40.648438 C 904.785156 31.257812 894.699219 26.5625 884.261719 23.777344 C 871.21875 20.300781 857.828125 18.386719 844.785156 15.605469 C 831.566406 13.34375 817.828125 10.5625 804.261719 7.605469 C 791.914062 5.167969 779.390625 2.214844 766.871094 0.996094 C 755.914062 0.125 744.78125 0.648438 734.695312 5.34375 C 725.304688 9.867188 718.523438 17.867188 714.695312 27.429688 C 706.347656 48.648438 713.304688 71.257812 724.433594 89.867188 C 731.042969 100.996094 739.042969 111.433594 746.523438 122.039062 C 754.695312 133.691406 762.871094 144.996094 771.390625 156.648438 C 778.695312 166.910156 786.695312 177.171875 792.785156 188.300781 C 798 197.867188 802.523438 208.824219 801.652344 219.953125 C 801.132812 225.171875 799.390625 230.214844 796.261719 234.390625 C 797.828125 235.605469 799.21875 236.652344 800.785156 237.867188 C 812.4375 222.214844 824.089844 205.695312 829.480469 186.738281 C 833.828125 171.257812 833.132812 154.5625 825.652344 140.300781 C 817.828125 125.34375 803.566406 116.824219 786.695312 116.996094 C 775.914062 117.171875 765.480469 119.78125 755.042969 121.519531 C 744.085938 123.605469 733.128906 125.34375 722.523438 127.433594 C 714.171875 128.996094 704.085938 129.519531 700.957031 138.910156 C 698.519531 146.039062 701.128906 154.214844 705.128906 160.300781 C 714.523438 174.390625 730.175781 181.867188 745.476562 188.128906 C 760.78125 194.214844 776.957031 200.128906 788.609375 212.476562 C 794.523438 218.5625 797.304688 225.695312 798.871094 233.867188 C 799.566406 237.695312 800.609375 241.867188 803.914062 244.652344 C 806.695312 247.085938 810.347656 248.128906 814 248.128906 C 818.175781 248.128906 822.175781 247.257812 825.828125 246.042969 C 831.042969 244.476562 836.609375 242.5625 841.828125 241 C 852.785156 237.519531 863.742188 234.214844 874.695312 230.738281 C 896.261719 223.953125 918.175781 217.347656 939.914062 210.390625 C 961.65625 203.433594 983.394531 196.996094 1005.132812 190.042969 C 1013.828125 187.257812 1023.21875 184.996094 1030.699219 179.953125 C 1037.828125 174.910156 1042.175781 167.605469 1042.699219 158.910156 C 1044.089844 143.953125 1036.265625 128.824219 1026.003906 118.386719 C 1015.914062 108.648438 1003.046875 102.214844 989.480469 99.257812 C 975.046875 96.128906 960.089844 96.128906 946.003906 99.257812 C 936.609375 101.34375 927.566406 105.171875 918.871094 109.691406 C 899.742188 119.433594 884.261719 134.910156 870.523438 151.257812 C 858.695312 165.171875 847.742188 179.953125 836.957031 195.085938 C 827.914062 208.128906 818.523438 220.824219 809.652344 234.042969 C 790.347656 262.738281 772.085938 292.304688 756.78125 323.609375 C 739.914062 357.867188 726.171875 393.523438 716.433594 430.566406 C 709.128906 458.390625 705.652344 487.085938 706.171875 515.609375 C 706.347656 527.957031 707.390625 540.480469 708.957031 552.480469 C 710.519531 564.132812 712.085938 575.957031 716.085938 586.914062 C 718.347656 593.351562 723.914062 604.65625 732.261719 598.914062 C 736.609375 596.132812 739.042969 590.914062 741.128906 586.394531 C 744.085938 579.785156 746.523438 573.175781 748.957031 566.394531 C 753.304688 553.347656 756.957031 540.132812 761.652344 527.4375 C 767.390625 512.828125 774 498.914062 781.304688 485.347656 C 797.304688 456.132812 816.4375 428.652344 838.695312 403.957031 C 861.304688 378.914062 887.046875 356.476562 916.261719 339.261719 C 940.261719 325.171875 966.351562 314.5625 994.003906 310.390625 C 1021.308594 306.042969 1049.65625 307.609375 1076.4375 313.519531 C 1095.742188 317.867188 1114.699219 323.957031 1132.785156 331.957031 C 1132.785156 330.390625 1132.785156 328.824219 1132.785156 326.914062 C 1102.527344 340.652344 1073.308594 357 1046.175781 376.304688 C 1015.394531 398.21875 987.566406 423.261719 962.699219 451.433594 C 943.566406 473.347656 925.304688 495.957031 903.914062 515.4375 C 884.609375 533.175781 863.042969 548.652344 840.261719 562.21875 C 810 579.957031 777.304688 593.871094 743.566406 604.652344 C 738.695312 606.21875 733.824219 607.609375 728.957031 609.003906 C 725.128906 612.304688 726.695312 617.699219 730.175781 616.65625 Z M 730.175781 616.65625 " fill-opacity="1" fill-rule="nonzero"/></g><path fill="#e4d9d3" d="M 731.914062 615.261719 C 744.261719 592.652344 758.175781 570.566406 772.261719 549.175781 C 786.347656 527.957031 801.480469 507.261719 817.828125 487.609375 C 837.480469 464.304688 859.042969 442.738281 882.695312 423.78125 C 906.699219 404.652344 932.609375 388.304688 960.261719 375.085938 C 988.960938 361.347656 1019.566406 351.433594 1050.699219 344.824219 C 1055.570312 343.957031 1060.265625 343.085938 1064.785156 342.042969 C 1068.4375 341.347656 1066.875 335.957031 1063.222656 336.652344 C 1030.003906 342.566406 997.65625 352.128906 966.523438 365.871094 C 938.871094 378.21875 912.957031 393.695312 888.785156 411.957031 C 863.914062 430.566406 841.132812 452.304688 820.609375 475.609375 C 803.042969 495.609375 787.042969 516.828125 772.085938 538.914062 C 757.652344 560.132812 744.085938 581.699219 731.21875 604.132812 C 729.652344 607.089844 728.085938 609.871094 726.347656 612.828125 C 725.304688 615.609375 730.175781 618.566406 731.914062 615.261719 Z M 731.914062 615.261719 " fill-opacity="1" fill-rule="nonzero"/></svg>