<svg xmlns="http://www.w3.org/2000/svg" xmlns:xlink="http://www.w3.org/1999/xlink" width="1920" zoomAndPan="magnify" viewBox="0 0 1440 809.999993" height="1080" preserveAspectRatio="xMidYMid meet" version="1.0"><path fill="#d7a6a2" d="M 417.636719 185.984375 C 419.789062 236.261719 439.683594 283.582031 466.300781 325.792969 C 481.898438 347.035156 500.179688 366.394531 518.460938 385.484375 C 544.8125 409.949219 573.042969 432.804688 604.5 450.816406 C 606.113281 451.894531 607.726562 452.96875 609.339844 453.773438 C 604.5 451.894531 599.390625 449.742188 594.550781 447.859375 C 555.566406 431.460938 515.234375 418.554688 475.710938 404.035156 C 447.75 393.28125 418.710938 380.105469 391.289062 366.929688 C 385.910156 354.832031 378.921875 343.539062 371.125 333.054688 C 350.152344 301.058594 321.382812 274.441406 288.582031 254.8125 C 266.804688 239.757812 243.410156 229.539062 218.40625 220.667969 C 189.90625 208.570312 158.449219 202.652344 127.53125 201.578125 C 115.160156 201.039062 103.0625 201.039062 90.695312 200.769531 C 85.316406 200.769531 79.671875 200.503906 74.292969 200.503906 C 72.144531 200.503906 69.992188 200.769531 68.378906 202.382812 C 64.347656 206.148438 67.304688 210.988281 70.53125 213.675781 C 82.089844 227.65625 91.234375 243.253906 103.0625 256.695312 C 127.261719 284.390625 154.683594 310.199219 185.875 330.097656 C 154.417969 327.40625 122.421875 331.171875 92.578125 341.65625 C 81.824219 345.960938 54.9375 347.839844 51.171875 358.597656 C 50.632812 363.972656 56.011719 366.929688 59.777344 369.621094 C 67.839844 375.265625 75.90625 380.644531 84.511719 385.75 C 116.773438 402.691406 150.113281 418.554688 185.335938 427.695312 C 222.441406 436.296875 261.695312 434.683594 298.261719 425.007812 C 320.039062 418.554688 342.085938 412.636719 361.714844 400.808594 C 371.125 394.894531 384.027344 390.324219 389.40625 380.375 C 424.898438 397.582031 461.460938 413.175781 498.835938 426.082031 C 538.894531 438.988281 577.613281 455.121094 616.597656 470.714844 C 603.15625 469.90625 589.710938 469.90625 576.269531 470.984375 C 550.726562 473.402344 526.257812 477.433594 501.253906 482.542969 C 470.871094 490.339844 440.492188 502.171875 413.335938 518.304688 C 389.675781 532.285156 369.511719 550.296875 349.613281 568.851562 C 347.730469 570.464844 345.582031 571.808594 343.699219 573.691406 C 340.203125 576.648438 342.625 582.292969 346.925781 582.5625 C 385.105469 588.746094 423.550781 595.46875 462.269531 592.777344 C 503.136719 589.554688 545.886719 582.292969 580.839844 559.171875 C 596.433594 548.953125 610.144531 535.78125 623.050781 522.335938 C 633.804688 510.773438 644.5625 498.675781 651.550781 484.425781 C 671.449219 491.683594 691.34375 498.675781 712.046875 504.320312 C 774.421875 521.53125 838.683594 532.015625 903.210938 538.46875 C 945.960938 542.230469 989.25 541.695312 1032 539.8125 C 1129.058594 535.511719 1226.65625 523.410156 1318.878906 491.683594 C 1339.3125 484.425781 1359.210938 475.285156 1378.03125 464.261719 C 1382.332031 461.839844 1386.902344 459.421875 1390.9375 456.464844 C 1392.816406 455.121094 1394.699219 453.773438 1395.507812 451.625 C 1397.121094 446.515625 1390.398438 443.019531 1387.976562 448.128906 C 1341.734375 474.746094 1290.378906 490.609375 1238.21875 501.902344 C 1182.5625 514.539062 1125.832031 520.992188 1068.832031 524.757812 C 1029.039062 527.175781 989.25 528.519531 949.457031 527.714844 C 953.488281 504.320312 946.5 481.199219 941.660156 458.347656 C 933.324219 423.660156 923.914062 388.441406 906.707031 356.984375 C 895.144531 336.011719 881.96875 315.847656 865.570312 298.101562 C 858.042969 289.230469 849.707031 279.28125 840.296875 271.484375 C 814.753906 249.972656 784.640625 235.992188 754.527344 221.472656 C 751.300781 219.324219 746.730469 217.171875 743.773438 220.9375 C 741.890625 223.355469 742.429688 226.3125 742.964844 229.003906 C 744.578125 236.53125 747 245.132812 749.417969 252.929688 C 757.484375 281.96875 765.011719 311.007812 774.960938 339.238281 C 794.859375 393.816406 819.054688 449.742188 863.6875 488.726562 C 878.742188 502.707031 895.414062 516.691406 914.234375 526.101562 C 876.324219 523.410156 838.683594 517.496094 801.308594 511.042969 C 763.667969 504.320312 726.296875 495.71875 690 484.15625 C 678.707031 480.394531 667.683594 476.628906 656.660156 472.597656 C 658.273438 452.429688 652.894531 431.996094 646.710938 412.90625 C 627.085938 352.949219 593.207031 298.101562 546.425781 255.351562 C 546.425781 255.351562 546.425781 255.351562 546.15625 255.351562 C 525.453125 237.335938 505.019531 219.859375 481.898438 205.074219 C 468.992188 196.738281 455.546875 189.480469 441.566406 182.757812 C 436.1875 180.335938 430.8125 177.378906 425.164062 175.496094 C 417.367188 173.347656 416.023438 180.070312 417.636719 185.984375 Z M 94.996094 211.792969 C 135.328125 212.601562 175.121094 214.484375 212.761719 230.882812 C 224.054688 235.457031 237.226562 239.757812 248.519531 245.132812 C 267.609375 254.277344 285.355469 266.105469 303.101562 277.667969 C 330.792969 297.292969 352.839844 323.105469 371.125 351.335938 C 363.863281 346.765625 355.527344 343 352.839844 340.851562 C 337.246094 331.976562 321.921875 323.105469 306.59375 314.234375 C 275.136719 296.488281 241.796875 282.777344 208.726562 268.527344 C 178.078125 255.621094 149.308594 239.21875 119.734375 224.164062 C 111.398438 220.128906 103.332031 215.828125 94.996094 211.792969 Z M 343.699219 346.496094 C 335.363281 343.539062 327.027344 340.851562 318.695312 338.164062 C 298.261719 331.171875 277.828125 325.257812 257.660156 317.460938 C 232.65625 307.511719 208.457031 297.027344 185.605469 282.777344 C 166.246094 270.40625 148.234375 256.425781 129.679688 242.714844 C 125.378906 239.21875 121.078125 235.992188 117.042969 232.230469 C 132.101562 240.292969 147.15625 248.359375 162.214844 256.425781 C 196.359375 274.710938 233.464844 288.152344 268.417969 304.824219 C 294.496094 317.460938 318.964844 332.246094 343.699219 346.496094 Z M 200.660156 322.566406 C 154.417969 296.21875 117.3125 257.503906 85.585938 215.019531 C 85.855469 215.289062 86.394531 215.289062 86.664062 215.558594 C 88.273438 217.171875 90.15625 218.785156 91.769531 220.398438 C 103.332031 231.960938 114.894531 242.714844 128.066406 252.664062 C 150.652344 269.332031 172.699219 287.347656 197.433594 300.519531 C 235.34375 321.222656 276.75 335.472656 317.886719 348.917969 C 326.761719 351.875 335.632812 354.5625 344.238281 357.789062 C 347.730469 359.132812 351.226562 360.476562 354.722656 361.824219 L 354.183594 361.824219 C 300.679688 362.089844 247.980469 346.765625 200.660156 322.566406 Z M 323.535156 394.355469 C 311.703125 397.582031 299.335938 399.734375 286.96875 401.347656 C 270.566406 402.421875 254.433594 404.574219 238.304688 405.917969 C 216.257812 405.917969 193.402344 403.765625 171.355469 399.464844 C 151.460938 394.625 131.832031 389.515625 113.28125 380.105469 C 109.515625 378.222656 106.019531 376.609375 102.257812 374.726562 C 106.019531 375.535156 109.785156 376.609375 113.550781 377.417969 C 147.695312 385.214844 183.183594 389.785156 217.871094 393.28125 C 235.613281 395.429688 252.015625 397.582031 270.03125 398.386719 C 288.582031 399.464844 306.058594 397.042969 323.535156 394.355469 Z M 343.699219 398.65625 C 292.613281 420.4375 234 431.191406 179.691406 415.597656 C 160.0625 409.949219 140.972656 401.882812 122.152344 393.550781 C 109.515625 388.171875 97.148438 381.988281 85.316406 374.996094 C 96.339844 380.644531 107.902344 386.558594 118.925781 391.9375 C 145.8125 403.226562 174.582031 410.21875 203.886719 412.636719 C 220.828125 414.519531 238.570312 415.328125 255.78125 412.90625 C 275.945312 410.757812 296.109375 409.949219 315.738281 405.109375 C 327.027344 403.226562 337.785156 398.925781 348.269531 394.625 C 350.421875 394.085938 352.839844 393.550781 354.992188 392.742188 C 351.226562 394.625 347.464844 396.507812 343.699219 398.65625 Z M 287.238281 388.710938 C 266.804688 388.976562 246.636719 386.828125 226.472656 384.40625 C 195.285156 381.179688 164.097656 377.417969 132.90625 371.769531 C 112.203125 368.277344 91.769531 362.089844 70.800781 358.863281 C 69.992188 358.863281 69.453125 358.597656 68.648438 358.597656 C 68.917969 358.597656 69.1875 358.328125 69.453125 358.328125 C 79.941406 355.371094 90.695312 353.757812 101.179688 349.992188 C 123.496094 342.734375 147.15625 339.238281 170.816406 340.042969 C 181.570312 340.582031 191.25 341.390625 202.273438 343 C 205.234375 343.539062 208.191406 344.078125 211.148438 344.613281 C 259.542969 367.46875 313.855469 379.03125 367.089844 376.878906 C 363.058594 378.222656 359.023438 379.03125 354.722656 379.835938 C 332.40625 383.0625 310.089844 387.363281 287.238281 388.710938 Z M 851.855469 298.371094 C 862.34375 311.007812 873.636719 323.644531 882.238281 337.625 C 897.296875 360.476562 908.855469 384.945312 917.191406 411.023438 C 922.570312 429.039062 927.679688 448.933594 931.980469 467.757812 C 934.9375 481.738281 938.703125 494.375 939.238281 508.894531 C 939.238281 510.773438 939.238281 512.925781 939.238281 514.808594 C 937.089844 504.589844 934.9375 494.644531 931.980469 484.695312 C 928.214844 471.519531 925.257812 458.078125 919.878906 445.441406 C 916.117188 436.835938 912.082031 428.5 908.320312 420.167969 C 904.285156 410.488281 899.984375 401.347656 894.875 391.9375 C 886.003906 375.535156 878.207031 358.058594 867.71875 342.464844 C 853.46875 319.609375 835.1875 299.445312 816.90625 279.816406 C 805.882812 266.914062 793.246094 256.15625 780.070312 245.402344 C 779.261719 244.867188 778.726562 244.328125 777.917969 243.789062 C 805.613281 258.039062 832.5 273.902344 851.855469 298.371094 Z M 927.410156 506.742188 C 920.6875 494.375 915.042969 481.46875 908.855469 468.832031 C 894.070312 435.761719 879.011719 402.691406 861.269531 370.695312 C 845.40625 339.777344 825.238281 311.277344 802.117188 285.464844 C 794.589844 276.589844 788.136719 266.914062 781.144531 257.769531 C 780.609375 257.234375 780.339844 256.695312 779.800781 255.890625 C 783.566406 259.117188 787.328125 262.34375 790.824219 265.835938 C 800.234375 274.441406 808.300781 284.121094 816.90625 293.800781 C 833.304688 311.277344 848.363281 329.558594 861 349.992188 C 872.558594 368.8125 881.96875 388.976562 892.1875 408.335938 C 899.714844 425.542969 908.855469 442.484375 915.042969 460.496094 C 919.34375 476.089844 923.914062 491.417969 927.410156 506.742188 Z M 858.308594 470.445312 C 827.660156 438.179688 806.957031 397.582031 791.898438 355.90625 C 777.113281 319.339844 767.703125 280.894531 756.949219 242.984375 C 766.359375 254.007812 775.769531 265.300781 784.101562 277.398438 C 796.472656 295.144531 812.066406 310.199219 824.164062 328.214844 C 845.671875 359.402344 862.882812 393.550781 879.28125 427.964844 C 879.28125 427.964844 879.28125 428.234375 879.28125 428.234375 C 886.808594 443.828125 893.261719 460.226562 901.058594 476.089844 C 907.242188 488.726562 913.160156 502.707031 920.148438 515.078125 C 921.226562 516.957031 922.300781 518.570312 923.375 520.183594 C 898.640625 508.625 877.9375 489.265625 858.308594 470.445312 Z M 631.117188 498.945312 C 608.53125 525.5625 582.722656 550.835938 549.917969 564.546875 C 521.957031 576.917969 491.308594 580.410156 460.925781 583.101562 C 435.921875 584.714844 410.648438 582.292969 385.640625 578.796875 C 408.765625 576.378906 431.886719 572.078125 454.742188 568.042969 C 463.613281 566.160156 472.21875 563.472656 481.089844 561.054688 C 498.566406 555.675781 516.582031 551.375 533.25 543.84375 C 550.726562 536.855469 567.933594 529.59375 583.796875 519.378906 C 593.476562 513.730469 603.691406 509.160156 613.371094 503.785156 C 622.246094 498.136719 631.117188 492.492188 639.988281 486.847656 C 637.570312 490.878906 634.34375 494.910156 631.117188 498.945312 Z M 402.042969 568.042969 C 411.722656 565.355469 421.132812 562.128906 430.542969 558.632812 C 456.621094 548.148438 483.242188 538.738281 509.050781 527.714844 C 525.992188 521.796875 542.390625 514.808594 559.597656 509.160156 C 578.152344 503.515625 596.433594 497.332031 614.71875 491.683594 C 613.910156 492.222656 613.371094 492.492188 612.566406 493.03125 C 602.347656 499.484375 590.789062 504.320312 580.300781 510.238281 C 572.503906 514.808594 564.707031 519.378906 556.640625 523.410156 C 538.359375 531.207031 520.074219 539.8125 500.71875 545.457031 C 482.972656 550.296875 465.496094 557.019531 447.210938 560.515625 C 432.425781 562.933594 417.367188 565.894531 402.042969 568.042969 Z M 620.902344 480.660156 C 619.019531 481.199219 617.136719 481.738281 615.253906 482.273438 C 603.15625 485.769531 591.324219 489.535156 579.226562 493.566406 C 530.832031 508.085938 484.585938 528.789062 437.265625 546.535156 C 423.015625 552.71875 407.957031 557.289062 392.902344 561.589844 C 382.683594 564.816406 372.738281 568.042969 362.25 570.464844 C 391.558594 543.039062 424.898438 519.378906 463.074219 505.933594 C 484.855469 496.792969 507.4375 490.609375 530.832031 487.382812 C 549.917969 484.15625 569.007812 480.929688 588.097656 480.125 C 599.121094 479.585938 610.144531 480.125 620.902344 480.660156 Z M 545.082031 268.792969 C 553.953125 277.128906 562.289062 286.539062 570.085938 295.949219 C 604.230469 334.398438 639.183594 402.421875 646.980469 455.925781 C 646.710938 455.65625 646.441406 455.121094 646.175781 454.851562 C 646.441406 453.238281 645.90625 451.085938 645.097656 449.472656 C 642.679688 441.136719 639.453125 432.265625 635.417969 424.46875 C 631.925781 416.671875 628.964844 408.875 625.472656 401.078125 C 617.675781 386.289062 609.609375 370.964844 601.003906 356.175781 C 591.324219 340.851562 581.109375 325.527344 568.742188 311.8125 C 559.597656 300.253906 549.917969 288.421875 538.359375 278.472656 C 521.957031 263.417969 504.75 248.359375 488.082031 233.574219 C 477.59375 222.820312 466.839844 212.601562 456.085938 201.847656 C 488.347656 220.128906 517.65625 243.519531 545.082031 268.792969 Z M 622.78125 416.671875 C 617.40625 408.335938 610.953125 401.078125 605.304688 393.011719 C 597.777344 381.449219 589.710938 370.15625 580.570312 359.941406 C 555.027344 325.792969 525.722656 294.335938 495.878906 263.6875 C 479.476562 246.210938 464.957031 227.121094 450.4375 208.03125 C 451.515625 209.105469 452.589844 210.183594 453.933594 211.527344 C 463.613281 220.9375 472.484375 231.152344 482.164062 240.5625 C 493.726562 251.316406 506.09375 261.265625 517.65625 272.019531 C 533.519531 285.734375 548.574219 299.984375 561.210938 316.652344 C 568.203125 324.988281 575.195312 333.324219 581.109375 342.195312 C 590.25 355.101562 598.316406 368.542969 605.574219 382.792969 C 612.027344 393.816406 617.941406 405.109375 622.78125 416.671875 Z M 476.519531 255.621094 C 504.210938 287.347656 535.402344 316.382812 560.945312 350.261719 C 568.472656 360.746094 577.074219 370.15625 585.140625 380.375 C 594.820312 394.625 604.5 408.335938 614.714844 422.046875 C 619.289062 429.039062 622.515625 436.835938 627.085938 443.828125 C 629.773438 448.128906 633 452.429688 636.226562 456.464844 C 624.933594 449.472656 612.835938 443.289062 601.542969 435.761719 C 574.65625 419.898438 550.726562 399.734375 527.605469 378.761719 C 510.933594 362.359375 495.339844 344.613281 480.550781 326.601562 C 469.796875 312.621094 462.269531 296.757812 454.203125 281.164062 C 440.761719 252.664062 430.8125 222.011719 428.929688 190.554688 C 443.449219 213.40625 459.847656 234.648438 476.519531 255.621094 Z M 476.519531 255.621094 " fill-opacity="1" fill-rule="nonzero"/></svg>